<svg width="194" height="61" viewBox="0 0 194 61" fill="none" xmlns="http://www.w3.org/2000/svg">
<path d="M28.6034 46.8546L10.2198 28.471L29.4622 9.22855L32.213 11.9794L15.7214 28.471L31.3542 44.1038L28.6034 46.8546Z" fill="black"/>
<path d="M28.6034 46.8546L27.9622 47.4958L28.6034 48.1371L29.2446 47.4958L28.6034 46.8546ZM10.2198 28.471L9.57854 27.8297L8.9373 28.471L9.57854 29.1122L10.2198 28.471ZM29.4622 9.22855L30.1034 8.58731L29.4622 7.94608L28.821 8.58731L29.4622 9.22855ZM32.213 11.9794L32.8543 12.6206L33.4955 11.9794L32.8543 11.3381L32.213 11.9794ZM15.7214 28.471L15.0802 27.8297L14.439 28.471L15.0802 29.1122L15.7214 28.471ZM31.3542 44.1038L31.9955 44.745L32.6367 44.1038L31.9955 43.4625L31.3542 44.1038ZM29.2446 46.2134L10.861 27.8297L9.57854 29.1122L27.9622 47.4958L29.2446 46.2134ZM10.861 29.1122L30.1034 9.86978L28.821 8.58731L9.57854 27.8297L10.861 29.1122ZM28.821 9.86978L31.5718 12.6206L32.8543 11.3381L30.1034 8.58731L28.821 9.86978ZM31.5718 11.3381L15.0802 27.8297L16.3627 29.1122L32.8543 12.6206L31.5718 11.3381ZM15.0802 29.1122L30.713 44.745L31.9955 43.4625L16.3627 27.8297L15.0802 29.1122ZM30.713 43.4625L27.9622 46.2134L29.2446 47.4958L31.9955 44.745L30.713 43.4625Z" fill="black"/>
<path d="M53.4007 41.5274C52.0677 42.8603 50.6006 43.898 48.9993 44.6405C47.407 45.3919 45.7878 45.8124 44.1418 45.9019C42.4957 45.9913 40.8765 45.7408 39.2842 45.1504C37.7008 44.5689 36.2471 43.6162 34.9231 42.2922L25.2214 32.5905L27.9722 29.8397L37.6739 39.5414C38.6222 40.4897 39.651 41.1606 40.7603 41.5542C41.8785 41.9568 43.0056 42.1088 44.1418 42.0104C45.2958 41.912 46.4274 41.5855 47.5367 41.0309C48.6639 40.4762 49.7016 39.7248 50.6498 38.7765C51.5981 37.8283 52.3451 36.795 52.8908 35.6768C53.4454 34.5675 53.7674 33.4404 53.8569 32.2953C53.9643 31.1502 53.8166 30.0186 53.4141 28.9004C53.0294 27.7821 52.363 26.7489 51.4147 25.8006L40.3443 14.7302L23.8527 31.2218L21.1019 28.471L40.3443 9.22855L54.1655 23.0498C55.4895 24.3738 56.4378 25.832 57.0103 27.4243C57.6007 29.0167 57.8467 30.6403 57.7483 32.2953C57.6589 33.9413 57.2384 35.5605 56.487 37.1529C55.7534 38.7452 54.7246 40.2034 53.4007 41.5274Z" fill="black"/>
<path d="M48.9993 44.6405L48.6178 43.8178L48.6123 43.8204L48.9993 44.6405ZM39.2842 45.1504L39.5995 44.3001L39.5968 44.2992L39.2842 45.1504ZM25.2214 32.5905L24.5802 31.9493L23.9389 32.5905L24.5802 33.2317L25.2214 32.5905ZM27.9722 29.8397L28.6135 29.1984L27.9722 28.5572L27.331 29.1984L27.9722 29.8397ZM40.7603 41.5542L41.0674 40.701L41.0635 40.6996L40.7603 41.5542ZM44.1418 42.0104L44.0647 41.1069L44.0635 41.107L44.1418 42.0104ZM47.5367 41.0309L47.1363 40.2172L47.1311 40.2198L47.5367 41.0309ZM52.8908 35.6768L52.0796 35.2712L52.0758 35.2791L52.8908 35.6768ZM53.8569 32.2953L52.9539 32.2106L52.9528 32.2247L53.8569 32.2953ZM53.4141 28.9004L52.5565 29.1954L52.5608 29.2075L53.4141 28.9004ZM40.3443 14.7302L40.9855 14.089L40.3443 13.4477L39.703 14.089L40.3443 14.7302ZM23.8527 31.2218L23.2115 31.863L23.8527 32.5043L24.4939 31.863L23.8527 31.2218ZM21.1019 28.471L20.4606 27.8297L19.8194 28.471L20.4606 29.1122L21.1019 28.471ZM40.3443 9.22855L40.9855 8.58731L40.3443 7.94608L39.703 8.58731L40.3443 9.22855ZM57.0103 27.4243L56.1569 27.7311L56.16 27.7396L57.0103 27.4243ZM57.7483 32.2953L56.8431 32.2415L56.8428 32.2461L57.7483 32.2953ZM56.487 37.1529L55.6668 36.7658L55.6633 36.7734L56.487 37.1529ZM52.7594 40.8861C51.4966 42.1489 50.1162 43.123 48.6179 43.8178L49.3808 45.4632C51.0851 44.673 52.6389 43.5716 54.0419 42.1686L52.7594 40.8861ZM48.6123 43.8204C47.1187 44.5253 45.6137 44.9137 44.0926 44.9964L44.191 46.8074C45.9619 46.7111 47.6953 46.2586 49.3864 45.4606L48.6123 43.8204ZM44.0926 44.9964C42.5743 45.0789 41.079 44.8487 39.5995 44.3001L38.9689 46.0007C40.6741 46.6329 42.4172 46.9038 44.191 46.8074L44.0926 44.9964ZM39.5968 44.2992C38.1499 43.7678 36.8056 42.8923 35.5644 41.651L34.2819 42.9335C35.6886 44.3401 37.2517 45.3701 38.9716 46.0017L39.5968 44.2992ZM35.5644 41.651L25.8626 31.9493L24.5802 33.2317L34.2819 42.9335L35.5644 41.651ZM25.8626 33.2317L28.6135 30.4809L27.331 29.1984L24.5802 31.9493L25.8626 33.2317ZM27.331 30.4809L37.0327 40.1826L38.3152 38.9002L28.6135 29.1984L27.331 30.4809ZM37.0327 40.1826C38.063 41.213 39.204 41.9642 40.457 42.4088L41.0635 40.6996C40.098 40.357 39.1814 39.7663 38.3152 38.9002L37.0327 40.1826ZM40.4531 42.4074C41.6893 42.8525 42.9478 43.0241 44.22 42.9139L44.0635 41.107C43.0635 41.1936 42.0676 41.061 41.0674 40.701L40.4531 42.4074ZM44.2188 42.914C45.4951 42.8052 46.7376 42.4443 47.9422 41.842L47.1311 40.2198C46.1172 40.7267 45.0965 41.0189 44.0647 41.1069L44.2188 42.914ZM47.9371 41.8445C49.1593 41.2431 50.2773 40.4316 51.2911 39.4178L50.0086 38.1353C49.1259 39.018 48.1684 39.7093 47.1363 40.2172L47.9371 41.8445ZM51.2911 39.4178C52.3048 38.404 53.1127 37.2897 53.7057 36.0745L52.0758 35.2791C51.5774 36.3003 50.8914 37.2525 50.0086 38.1353L51.2911 39.4178ZM53.7019 36.0824C54.3046 34.8769 54.6617 33.6366 54.761 32.3659L52.9528 32.2247C52.8732 33.2441 52.5862 34.2582 52.0797 35.2713L53.7019 36.0824ZM54.7598 32.3799C54.88 31.0977 54.7135 29.8325 54.2673 28.5932L52.5608 29.2075C52.9198 30.2047 53.0485 31.2027 52.954 32.2107L54.7598 32.3799ZM54.2716 28.6054C53.8364 27.3403 53.0885 26.192 52.0559 25.1594L50.7735 26.4419C51.6374 27.3058 52.2224 28.224 52.5566 29.1954L54.2716 28.6054ZM52.0559 25.1594L40.9855 14.089L39.703 15.3715L50.7735 26.4419L52.0559 25.1594ZM39.703 14.089L23.2115 30.5806L24.4939 31.863L40.9855 15.3715L39.703 14.089ZM24.4939 30.5806L21.7431 27.8297L20.4606 29.1122L23.2115 31.863L24.4939 30.5806ZM21.7431 29.1122L40.9855 9.86978L39.703 8.58731L20.4606 27.8297L21.7431 29.1122ZM39.703 9.86978L53.5243 23.691L54.8068 22.4086L40.9855 8.58731L39.703 9.86978ZM53.5243 23.691C54.764 24.9307 55.6342 26.2774 56.1569 27.7311L57.8637 27.1175C57.2413 25.3865 56.2151 23.8169 54.8068 22.4086L53.5243 23.691ZM56.16 27.7396C56.7078 29.217 56.9338 30.7151 56.8431 32.2415L58.6536 32.3491C58.7596 30.5655 58.4936 28.8163 57.8606 27.109L56.16 27.7396ZM56.8428 32.2461C56.7601 33.7672 56.3717 35.2722 55.6669 36.7658L57.3071 37.5399C58.1051 35.8488 58.5576 34.1154 58.6538 32.3445L56.8428 32.2461ZM55.6633 36.7734C54.9776 38.262 54.0128 39.6328 52.7594 40.8861L54.0419 42.1686C55.4365 40.774 56.5292 39.2285 57.3106 37.5323L55.6633 36.7734Z" fill="black"/>
<path d="M62.7991 24.5748V24.1709C62.7991 23.7512 62.9179 23.4185 63.1555 23.173C63.401 22.9275 63.7376 22.8048 64.1652 22.8048H65.6383C66.058 22.8048 66.3907 22.9275 66.6362 23.173C66.8817 23.4106 67.0044 23.7432 67.0044 24.1709V24.5748C67.0044 24.9946 66.8817 25.3272 66.6362 25.5727C66.3986 25.8182 66.066 25.941 65.6383 25.941H64.1652C63.7455 25.941 63.4129 25.8182 63.1673 25.5727C62.9218 25.3272 62.7991 24.9946 62.7991 24.5748ZM62.8466 39.353V28.0793C62.8466 27.8654 62.9139 27.6912 63.0485 27.5566C63.1911 27.4219 63.3653 27.3546 63.5712 27.3546H66.2323C66.4461 27.3546 66.6203 27.4259 66.755 27.5685C66.8896 27.7031 66.9569 27.8734 66.9569 28.0793V39.353C66.9569 39.5668 66.8856 39.741 66.7431 39.8757C66.6085 40.0103 66.4382 40.0776 66.2323 40.0776H63.5712C63.3574 40.0776 63.1832 40.0103 63.0485 39.8757C62.9139 39.741 62.8466 39.5668 62.8466 39.353ZM71.0197 38.5808C69.8001 37.4245 69.1903 35.7614 69.1903 33.5914C69.1903 31.4135 69.8041 29.7424 71.0316 28.5782C72.2592 27.4061 73.9619 26.82 76.1398 26.82C78.3177 26.82 80.0165 27.3903 81.2362 28.5307C82.4558 29.6632 83.0656 31.2907 83.0656 33.4132V34.0903C83.0656 34.3042 82.9943 34.4824 82.8518 34.6249C82.7171 34.7596 82.5429 34.8269 82.3291 34.8269H73.3838C73.463 35.801 73.7402 36.5098 74.2153 36.9533C74.6984 37.3968 75.4666 37.6186 76.52 37.6186C77.5733 37.6186 78.294 37.381 78.6821 36.9058C79.0701 36.4306 79.5493 36.1891 80.1195 36.1811H81.8895C82.1034 36.1811 82.2776 36.2524 82.4122 36.395C82.5548 36.5296 82.6261 36.7038 82.6261 36.9177C82.6261 39.1906 80.46 40.3231 76.1279 40.3152C73.9421 40.3152 72.2394 39.7371 71.0197 38.5808ZM73.36 32.3203H78.884C78.8048 30.4512 77.8861 29.5167 76.1279 29.5167C74.3777 29.5167 73.455 30.4512 73.36 32.3203ZM90.526 39.0798C88.7282 39.0798 87.2749 38.5373 86.1662 37.4523C85.0653 36.3673 84.5149 34.8625 84.5149 32.938C84.5149 31.0135 85.1445 29.5127 86.4038 28.4357C87.663 27.3586 89.4687 26.82 91.8208 26.82C92.9692 26.82 94.1611 26.9507 95.3966 27.2121C96.6321 27.4655 97.5626 27.7783 98.1883 28.1506V39.151C98.1883 40.9171 97.6062 42.2199 96.442 43.0594C95.2778 43.9068 93.6424 44.3305 91.5357 44.3305C89.437 44.3305 87.8174 44.0652 86.677 43.5346C85.5445 43.0119 84.9782 42.1447 84.9782 40.933C84.9782 40.7191 85.0455 40.5409 85.1802 40.3984C85.3227 40.2637 85.5009 40.1964 85.7148 40.1964H87.4848C88.055 40.1964 88.5104 40.4063 88.851 40.826C89.2865 41.3646 90.0587 41.6339 91.1675 41.6339C92.2841 41.6339 93.0484 41.4517 93.4602 41.0874C93.8721 40.7231 94.078 40.0776 94.078 39.151V38.5927C92.8108 38.9174 91.6268 39.0798 90.526 39.0798ZM91.5714 29.6949C89.6944 29.687 88.7559 30.772 88.7559 32.9499C88.7559 35.1199 89.6706 36.2049 91.5001 36.2049C92.2604 36.2049 93.1197 36.0861 94.078 35.8485V29.9563C93.3969 29.7741 92.5613 29.687 91.5714 29.6949ZM102.239 38.6046C101.004 37.4641 100.386 35.7852 100.386 33.5676C100.386 31.3422 101.004 29.6632 102.239 28.5307C103.475 27.3903 105.249 26.82 107.561 26.82C109.882 26.82 111.66 27.3903 112.895 28.5307C114.131 29.6632 114.748 31.3422 114.748 33.5676C114.748 35.7852 114.131 37.4641 112.895 38.6046C111.66 39.745 109.882 40.3152 107.561 40.3152C105.249 40.3152 103.475 39.745 102.239 38.6046ZM105.245 30.479C104.754 31.1204 104.508 32.146 104.508 33.5558C104.508 34.9655 104.754 35.995 105.245 36.6444C105.736 37.2939 106.508 37.6186 107.561 37.6186C108.623 37.6186 109.399 37.2939 109.89 36.6444C110.389 35.995 110.638 34.9655 110.638 33.5558C110.638 32.146 110.389 31.1204 109.89 30.479C109.399 29.8375 108.623 29.5167 107.561 29.5167C106.508 29.5167 105.736 29.8375 105.245 30.479ZM117.184 38.9847V24.1947C117.184 23.87 117.295 23.5967 117.516 23.375C117.738 23.1532 118.003 23.0423 118.312 23.0423H120.546C120.854 23.0423 121.116 23.1532 121.33 23.375C121.551 23.5967 121.662 23.87 121.662 24.1947V36.7157H132.009C132.318 36.7157 132.58 36.8266 132.793 37.0483C133.015 37.2701 133.126 37.5354 133.126 37.8443V38.961C133.126 39.2698 133.015 39.5351 132.793 39.7569C132.58 39.9707 132.318 40.0776 132.009 40.0776H118.312C118.003 40.0776 117.738 39.9747 117.516 39.7688C117.295 39.5549 117.184 39.2936 117.184 38.9847ZM135.668 39.2223C134.623 38.4937 134.1 37.4641 134.1 36.1336C134.1 34.8031 134.623 33.7815 135.668 33.0687C136.722 32.3559 138.076 31.9995 139.731 31.9995L143.663 31.9995C143.663 31.0729 143.469 30.4275 143.081 30.0632C142.693 29.6989 142.012 29.5167 141.038 29.5167C140.072 29.5167 139.391 29.7583 138.995 30.2414C138.607 30.7165 138.127 30.9541 137.557 30.9541H135.787C135.573 30.9541 135.395 30.8868 135.253 30.7522C135.118 30.6096 135.051 30.4354 135.051 30.2295C135.051 27.9565 137.209 26.82 141.525 26.82C143.41 26.82 144.922 27.2438 146.063 28.0912C147.203 28.9306 147.774 30.2334 147.774 31.9995V39.353C147.774 39.5668 147.706 39.741 147.572 39.8757C147.437 40.0103 147.263 40.0776 147.049 40.0776H144.756C144.542 40.0776 144.368 40.0103 144.233 39.8757C144.099 39.7331 144.032 39.5589 144.032 39.353V38.9847C142.78 39.8796 141.335 40.3231 139.695 40.3152C138.064 40.3152 136.722 39.9509 135.668 39.2223ZM140.016 34.6962C139.462 34.6962 139.022 34.8308 138.698 35.1001C138.381 35.3694 138.222 35.7178 138.222 36.1455C138.222 36.5732 138.389 36.9256 138.721 37.2028C139.054 37.48 139.525 37.6186 140.135 37.6186C141.355 37.6186 142.531 37.2622 143.663 36.5494V34.6962H140.016ZM159.713 30.075L157.883 30.0038C156.814 30.0038 155.792 30.5898 154.818 31.7619V39.353C154.818 39.5668 154.747 39.741 154.604 39.8757C154.47 40.0103 154.299 40.0776 154.094 40.0776H151.432C151.219 40.0776 151.044 40.0103 150.91 39.8757C150.775 39.741 150.708 39.5668 150.708 39.353V27.7942C150.708 27.5803 150.775 27.4061 150.91 27.2715C151.052 27.1289 151.227 27.0576 151.432 27.0576H154.094C154.307 27.0576 154.482 27.1289 154.616 27.2715C154.751 27.4061 154.818 27.5803 154.818 27.7942V28.5426C155.626 27.9565 156.402 27.5249 157.147 27.2477C157.899 26.9626 158.881 26.82 160.093 26.82C160.307 26.82 160.481 26.8913 160.615 27.0339C160.758 27.1685 160.829 27.3388 160.829 27.5447V29.3504C160.829 29.5642 160.758 29.7385 160.615 29.8731C160.481 30.0077 160.307 30.075 160.093 30.075H159.713ZM167.814 39.0798C166.017 39.0798 164.563 38.5373 163.455 37.4523C162.354 36.3673 161.803 34.8625 161.803 32.938C161.803 31.0135 162.433 29.5127 163.692 28.4357C164.951 27.3586 166.757 26.82 169.109 26.82C170.258 26.82 171.45 26.9507 172.685 27.2121C173.92 27.4655 174.851 27.7783 175.477 28.1506V39.151C175.477 40.9171 174.895 42.2199 173.73 43.0594C172.566 43.9068 170.931 44.3305 168.824 44.3305C166.725 44.3305 165.106 44.0652 163.965 43.5346C162.833 43.0119 162.267 42.1447 162.267 40.933C162.267 40.7191 162.334 40.5409 162.469 40.3984C162.611 40.2637 162.789 40.1964 163.003 40.1964H164.773C165.343 40.1964 165.799 40.4063 166.139 40.826C166.575 41.3646 167.347 41.6339 168.456 41.6339C169.573 41.6339 170.337 41.4517 170.749 41.0874C171.16 40.7231 171.366 40.0776 171.366 39.151V38.5927C170.099 38.9174 168.915 39.0798 167.814 39.0798ZM168.86 29.6949C166.983 29.687 166.044 30.772 166.044 32.9499C166.044 35.1199 166.959 36.2049 168.789 36.2049C169.549 36.2049 170.408 36.0861 171.366 35.8485V29.9563C170.685 29.7741 169.85 29.687 168.86 29.6949ZM179.528 38.6046C178.292 37.4641 177.674 35.7852 177.674 33.5676C177.674 31.3422 178.292 29.6632 179.528 28.5307C180.763 27.3903 182.537 26.82 184.85 26.82C187.17 26.82 188.948 27.3903 190.184 28.5307C191.419 29.6632 192.037 31.3422 192.037 33.5676C192.037 35.7852 191.419 37.4641 190.184 38.6046C188.948 39.745 187.17 40.3152 184.85 40.3152C182.537 40.3152 180.763 39.745 179.528 38.6046ZM182.533 30.479C182.042 31.1204 181.797 32.146 181.797 33.5558C181.797 34.9655 182.042 35.995 182.533 36.6444C183.024 37.2939 183.796 37.6186 184.85 37.6186C185.911 37.6186 186.687 37.2939 187.178 36.6444C187.677 35.995 187.926 34.9655 187.926 33.5558C187.926 32.146 187.677 31.1204 187.178 30.479C186.687 29.8375 185.911 29.5167 184.85 29.5167C183.796 29.5167 183.024 29.8375 182.533 30.479Z" fill="black"/>
</svg>
